<?xml version="1.0" standalone="no"?>
<!DOCTYPE svg PUBLIC "-//W3C//DTD SVG 20010904//EN"
 "http://www.w3.org/TR/2001/REC-SVG-20010904/DTD/svg10.dtd">
<svg version="1.0" xmlns="http://www.w3.org/2000/svg"
 width="1280.000000pt" height="1096.000000pt" viewBox="0 0 1280.000000 1096.000000"
 preserveAspectRatio="xMidYMid meet">
<metadata>
Created by potrace 1.15, written by Peter Selinger 2001-2017
</metadata>
<g transform="translate(0.000000,1096.000000) scale(0.100000,-0.100000)"
fill="#000000" stroke="none">
<path d="M11677 10945 c-21 -10 -34 -12 -47 -5 -43 23 -123 3 -152 -39 -21
-30 -126 -32 -163 -3 -30 24 -101 30 -136 12 -13 -7 -31 -8 -54 -1 -44 12 -90
0 -124 -33 -37 -35 -131 -39 -181 -8 -19 12 -44 22 -55 23 -35 2 -69 -3 -87
-12 -10 -6 -28 -5 -45 2 -39 15 -88 3 -126 -30 -23 -20 -47 -30 -86 -34 -46
-5 -57 -3 -85 17 -43 33 -86 40 -130 22 -28 -11 -43 -13 -66 -4 -43 15 -94 2
-128 -31 -22 -22 -42 -31 -85 -36 -50 -6 -59 -5 -90 19 -36 28 -101 35 -138
16 -13 -8 -31 -7 -58 1 -48 14 -102 -1 -131 -38 -16 -20 -31 -26 -79 -30 -55
-5 -63 -3 -92 22 -29 24 -38 26 -83 21 -28 -4 -83 -6 -121 -6 -66 1 -72 -1
-112 -34 -35 -31 -48 -36 -92 -36 -37 0 -60 6 -88 26 -32 22 -45 25 -83 19
-25 -3 -73 -6 -107 -5 -66 1 -105 -13 -137 -49 -27 -29 -116 -30 -157 0 -41
29 -91 35 -129 15 -23 -11 -37 -13 -50 -6 -43 23 -114 5 -154 -39 -28 -31
-125 -30 -167 2 -34 24 -107 29 -132 9 -10 -9 -22 -9 -46 -1 -43 15 -95 3
-134 -31 -45 -39 -129 -44 -175 -11 -43 30 -93 37 -131 18 -24 -12 -37 -13
-59 -5 -40 15 -97 2 -129 -31 -22 -22 -41 -29 -89 -34 -53 -6 -64 -4 -79 13
-29 32 -88 43 -130 26 -27 -12 -42 -12 -65 -4 -43 14 -93 2 -129 -31 -22 -21
-44 -30 -85 -35 -48 -5 -60 -3 -92 19 -39 27 -100 33 -135 15 -13 -8 -31 -7
-58 0 -32 8 -48 7 -81 -6 -22 -9 -46 -25 -54 -35 -8 -12 -31 -21 -70 -25 -51
-6 -61 -4 -89 17 -26 19 -43 23 -87 22 -30 -1 -83 -2 -117 -2 -64 0 -115 -18
-131 -47 -6 -10 -29 -17 -68 -21 -53 -5 -64 -2 -98 21 -41 28 -101 35 -137 16
-13 -7 -31 -8 -54 -1 -47 13 -94 -1 -130 -39 -25 -26 -36 -30 -83 -30 -39 0
-62 6 -83 21 -40 28 -99 35 -137 16 -18 -9 -35 -11 -43 -6 -8 5 -33 9 -56 9
-35 0 -50 -6 -82 -35 -34 -31 -44 -35 -94 -35 -43 0 -65 6 -93 25 -40 27 -86
32 -123 11 -18 -10 -32 -11 -56 -3 -46 14 -97 2 -131 -32 -25 -24 -39 -30 -87
-32 -40 -2 -62 2 -74 13 -46 40 -106 49 -153 24 -18 -10 -30 -11 -44 -4 -34
18 -105 3 -139 -30 -43 -40 -130 -51 -164 -20 -31 29 -83 38 -129 22 -30 -10
-47 -11 -72 -3 -42 14 -78 5 -122 -30 -49 -39 -139 -50 -165 -21 -29 32 -86
43 -136 26 -29 -10 -48 -12 -60 -5 -40 21 -104 4 -142 -39 -13 -14 -37 -22
-76 -27 -52 -6 -62 -4 -96 19 -43 29 -92 33 -134 12 -17 -9 -32 -11 -42 -5 -8
5 -33 9 -56 9 -33 0 -50 -7 -77 -31 -27 -23 -48 -32 -88 -36 -47 -5 -59 -2
-93 22 -35 23 -46 26 -90 20 -27 -3 -78 -5 -112 -5 -66 1 -105 -13 -135 -49
-27 -32 -115 -29 -164 4 -41 28 -86 32 -125 11 -16 -8 -32 -10 -40 -5 -40 25
-116 5 -163 -43 -25 -26 -118 -25 -154 2 -39 29 -93 36 -132 16 -23 -11 -37
-13 -50 -6 -43 23 -114 5 -153 -38 -15 -16 -37 -21 -138 -27 -98 -6 -121 -10
-128 -24 -6 -10 -14 -91 -20 -182 -10 -159 -14 -257 -46 -1074 -8 -209 -31
-774 -50 -1255 -63 -1565 -93 -2336 -135 -3435 -16 -429 -36 -926 -45 -1105
-8 -179 -19 -437 -25 -575 -6 -137 -17 -304 -26 -370 -23 -175 -15 -260 32
-360 70 -149 176 -287 443 -575 79 -85 159 -178 177 -207 19 -29 40 -56 47
-60 7 -4 23 -32 37 -62 14 -30 37 -71 52 -92 14 -20 36 -56 48 -80 13 -24 37
-64 55 -89 18 -25 52 -81 75 -125 53 -98 210 -351 263 -423 54 -74 87 -92 167
-92 36 0 99 5 140 11 233 31 293 40 375 54 109 18 247 38 775 110 223 31 551
78 730 105 179 27 458 68 620 90 162 22 639 90 1060 150 421 60 1098 157 1505
215 407 58 778 112 825 120 47 8 110 15 140 15 30 0 73 5 95 10 72 16 2465
360 2830 406 110 13 239 31 286 39 107 19 977 145 1274 185 313 43 467 69 492
86 13 8 31 26 40 41 17 25 18 63 18 453 l0 425 64 42 c86 57 110 81 117 119 3
18 -10 147 -30 291 -19 142 -49 364 -66 493 -81 635 -105 825 -150 1190 -44
352 -104 852 -160 1330 -10 91 -28 266 -40 390 -11 124 -30 288 -40 365 -22
156 -94 871 -110 1095 -5 80 -24 325 -40 545 -16 220 -39 533 -50 695 -11 162
-22 311 -25 330 -3 19 -16 193 -30 385 -44 622 -65 839 -85 915 -6 22 -32 66
-58 99 -26 33 -55 73 -64 90 -34 62 -112 87 -171 56z m-48 -32 c15 -12 -24
-24 -70 -21 l-54 3 35 17 c30 14 74 15 89 1z m157 2 c17 -13 14 -14 -43 -15
-58 0 -73 6 -56 23 12 13 79 7 99 -8z m-492 -35 c7 -7 -11 -10 -52 -10 -66 0
-76 5 -39 20 25 11 76 5 91 -10z m-164 0 c13 -8 13 -10 0 -14 -24 -8 -110 -12
-110 -5 0 21 83 36 110 19z m669 -32 c44 -47 49 -64 26 -108 -13 -25 -60 -60
-80 -60 -3 0 -5 18 -5 39 0 22 -4 42 -9 45 -4 3 -11 25 -14 48 -2 24 -8 51
-12 61 -6 14 -2 17 24 17 23 0 40 -10 70 -42z m-121 15 c16 -30 22 -68 13 -81
-5 -8 -41 -16 -92 -20 l-84 -7 2 -75 c1 -41 5 -108 8 -149 l7 -73 106 7 c59 4
109 9 111 11 3 3 4 44 2 93 -2 87 -2 89 22 95 28 7 87 69 87 91 0 25 16 17 33
-17 11 -22 24 -100 37 -233 19 -194 31 -349 85 -1090 35 -474 121 -1595 145
-1890 33 -402 45 -515 169 -1615 67 -594 168 -1423 221 -1810 49 -362 162
-1252 167 -1316 5 -65 3 -73 -15 -83 -48 -26 -397 -75 -2902 -411 -448 -60
-876 -118 -950 -130 -74 -11 -331 -44 -570 -75 -239 -30 -460 -60 -490 -65
-85 -15 -1075 -149 -2030 -276 -476 -63 -1025 -136 -1220 -164 -316 -44 -558
-76 -1540 -205 -336 -44 -522 -70 -730 -101 -175 -26 -837 -114 -857 -114 -16
0 -16 -2 -73 485 -55 465 -102 906 -185 1730 -31 303 -62 615 -70 695 -9 80
-31 307 -50 505 -19 198 -64 655 -100 1015 -82 827 -287 2889 -360 3625 -83
842 -91 895 -140 933 l-24 19 77 6 c42 4 134 9 203 13 122 7 127 6 138 -14 6
-11 11 -36 11 -55 l0 -35 -91 -7 -91 -7 7 -122 c3 -66 9 -134 12 -150 l5 -28
102 7 c55 4 106 11 112 16 8 7 10 37 6 94 -4 74 -3 85 11 85 26 0 85 58 98 97
10 33 9 67 -6 119 -7 21 -4 22 132 29 76 3 146 9 156 11 13 4 21 -4 33 -31 29
-69 20 -79 -76 -88 -47 -5 -89 -12 -93 -16 -5 -5 -2 -71 5 -147 l13 -139 95 4
c132 5 130 3 124 104 l-5 82 42 20 c56 27 81 73 76 140 -2 28 -7 57 -11 66 -7
15 6 18 111 23 65 4 135 9 155 11 34 5 39 2 53 -26 9 -16 15 -42 13 -57 -3
-23 -8 -27 -38 -29 -19 -2 -59 -6 -89 -9 l-54 -6 8 -136 c4 -76 11 -142 17
-149 9 -12 23 -11 167 3 l54 6 -6 86 -6 87 39 18 c52 24 82 74 82 136 0 26 -5
58 -11 70 -11 19 -9 21 21 21 18 0 87 5 153 10 139 11 144 8 152 -64 l6 -46
-60 0 c-33 0 -75 -3 -93 -6 l-32 -7 7 -106 c3 -58 8 -123 12 -145 l5 -39 105
6 c57 3 107 8 110 11 7 6 5 132 -2 156 -3 10 9 21 35 32 69 29 105 117 77 189
-14 36 -14 39 1 39 9 0 80 5 156 10 159 12 164 10 173 -57 5 -36 3 -41 -18
-46 -13 -4 -52 -7 -85 -7 -86 0 -88 -4 -75 -142 6 -62 11 -123 11 -135 0 -22
4 -23 63 -22 34 0 85 4 112 7 l50 7 -4 93 c-3 86 -2 92 16 92 27 0 70 35 88
70 17 33 20 112 5 140 -11 20 4 23 201 35 108 7 117 3 126 -63 5 -37 4 -39
-27 -46 -18 -3 -56 -6 -86 -6 -29 0 -56 -5 -60 -11 -3 -6 -3 -71 1 -146 6
-105 10 -136 22 -140 8 -3 58 -2 111 3 l97 9 -2 86 c-2 87 -2 87 26 99 72 29
112 117 88 189 l-14 40 36 5 c20 3 91 8 158 12 l123 6 10 -27 c5 -14 10 -39
10 -55 0 -28 -1 -29 -67 -35 -38 -3 -77 -7 -88 -8 -19 -2 -20 -8 -17 -107 1
-58 5 -125 8 -149 l6 -43 101 7 c56 3 106 10 111 15 5 5 7 46 4 92 l-4 83 40
20 c69 34 101 123 71 197 -9 23 6 26 171 34 l141 6 12 -32 c6 -18 11 -43 11
-56 0 -21 -6 -23 -77 -29 -43 -3 -85 -7 -93 -8 -12 -2 -14 -19 -12 -94 2 -50
7 -115 11 -144 l6 -54 90 3 c143 4 135 -3 128 100 l-6 87 37 13 c51 19 86 73
86 135 0 27 -5 57 -11 69 -6 11 -9 21 -7 23 2 1 68 6 148 10 80 4 148 9 152
11 11 7 38 -52 38 -84 l0 -30 -91 -7 -92 -7 7 -134 c3 -74 9 -141 12 -149 6
-13 20 -15 93 -10 145 10 135 2 127 103 l-6 87 42 20 c54 25 82 72 81 135 0
26 -6 56 -12 67 -10 21 -8 21 117 27 70 4 139 9 154 11 35 6 58 -25 58 -76 l0
-36 -91 -8 -90 -7 7 -126 c10 -178 7 -173 96 -167 40 4 88 8 107 11 l33 5 -4
87 -4 87 41 20 c70 35 101 126 70 207 -5 13 9 16 102 22 59 4 129 9 156 12 47
6 47 6 63 -31 8 -20 14 -47 12 -59 -3 -19 -11 -22 -87 -28 -46 -4 -88 -11 -93
-16 -10 -10 9 -273 20 -283 8 -8 195 6 210 15 6 3 8 39 5 89 l-6 84 29 10 c36
13 72 47 85 80 12 32 12 95 -1 127 -8 23 -7 26 13 26 12 0 80 5 152 10 150 11
158 8 159 -62 l1 -43 -45 -2 c-25 -2 -65 -6 -89 -9 l-44 -6 7 -136 c4 -75 11
-141 16 -147 6 -7 36 -8 92 -4 46 4 94 8 107 8 24 1 24 1 17 90 l-7 89 28 9
c74 26 115 113 90 188 l-14 43 66 6 c36 3 107 8 157 12 l91 6 12 -30 c7 -16
11 -43 9 -58 -3 -28 -5 -29 -68 -32 -121 -4 -113 5 -105 -130 10 -180 6 -172
73 -172 31 0 81 3 111 7 l54 6 -5 88 -5 88 43 21 c70 35 101 123 69 202 -8 20
18 24 187 33 110 7 117 6 127 -13 6 -12 11 -36 11 -55 0 -31 -4 -35 -31 -41
-17 -3 -52 -6 -78 -6 -75 0 -74 0 -62 -144 6 -70 11 -134 11 -142 0 -15 67
-18 170 -6 l55 7 -3 90 -3 90 39 17 c65 30 100 120 73 192 -12 31 -5 33 174
42 l131 6 12 -26 c7 -15 12 -40 12 -55 0 -25 -4 -29 -37 -35 -21 -3 -58 -6
-83 -6 -26 0 -50 -4 -56 -10 -11 -11 3 -270 16 -284 5 -5 52 -5 112 0 l103 9
-3 87 -3 87 34 14 c75 32 113 120 83 192 -9 21 -16 39 -16 41 0 2 33 4 73 5
39 0 109 4 155 8 96 7 102 4 109 -63 l5 -44 -78 -7 c-44 -3 -85 -8 -93 -11
-11 -3 -12 -27 -7 -122 4 -64 9 -130 12 -145 l6 -28 101 7 c56 3 106 9 111 12
5 2 6 43 3 89 l-5 84 32 13 c71 30 109 112 87 188 -7 22 -11 41 -9 43 2 2 70
7 152 12 141 8 149 7 162 -12 8 -11 14 -36 14 -56 l0 -37 -87 -8 -88 -9 4 -99
c2 -55 6 -120 10 -145 l6 -46 100 4 c55 2 105 7 111 12 7 5 9 40 6 94 -4 73
-2 85 11 85 26 0 85 58 98 97 11 34 8 89 -6 124 -5 14 8 17 102 23 59 4 129 9
156 12 47 6 47 6 63 -31 29 -69 20 -79 -76 -88 -47 -5 -87 -12 -90 -17 -6 -9
8 -256 15 -277 3 -9 28 -11 92 -7 147 9 136 0 128 103 -7 87 -7 89 17 96 30 9
66 42 84 77 17 32 18 101 3 130 -6 11 -9 21 -7 23 2 2 71 8 153 13 172 12 178
10 179 -60 1 -36 -2 -43 -19 -45 -11 -1 -51 -5 -89 -8 l-68 -7 7 -131 c4 -73
11 -139 16 -149 9 -16 54 -17 178 -2 l44 6 -6 87 -5 87 36 19 c53 29 82 77 82
137 0 27 -4 57 -10 67 -9 17 -3 19 78 25 48 4 119 9 159 12 78 7 88 0 93 -56
5 -58 6 -57 -85 -62 -47 -2 -88 -7 -91 -11 -6 -6 14 -278 21 -286 7 -6 145 -1
185 8 l35 7 -4 92 c-3 80 -1 92 13 92 69 0 132 133 95 202 -6 11 -8 22 -6 25
3 2 72 9 153 14 166 11 167 11 180 -59 9 -44 -4 -52 -87 -52 -97 0 -98 -1 -87
-150 5 -69 11 -131 14 -139 4 -11 24 -13 105 -8 55 3 104 9 110 13 7 4 8 35 4
89 l-7 82 38 19 c21 11 46 31 57 45 23 33 33 107 19 147 -10 29 -9 30 21 35
18 3 88 9 157 12 l126 7 12 -26 c7 -15 12 -40 12 -56 0 -33 -15 -38 -120 -43
l-55 -2 3 -125 c3 -188 -6 -174 114 -166 55 3 105 9 111 13 6 4 8 36 4 87 l-6
82 42 20 c71 32 107 131 72 197 -18 35 -15 36 90 40 209 8 214 8 223 -10z
m-889 -7 c24 -13 22 -14 -30 -18 -57 -5 -85 6 -59 22 21 14 61 12 89 -4z
m-154 -6 c7 -12 -4 -16 -67 -25 -27 -3 -48 -2 -48 3 0 24 102 44 115 22z m699
-12 c32 -46 13 -138 -36 -172 -34 -24 -45 -19 -51 22 -5 36 -17 88 -32 145
l-7 27 55 0 c46 0 59 -4 71 -22z m-1035 -12 c23 -13 21 -13 -30 -19 -56 -5
-86 6 -59 23 21 14 61 12 89 -4z m-154 -5 c8 -14 -7 -20 -71 -27 l-59 -6 25
21 c26 21 94 29 105 12z m703 -35 c17 -51 1 -106 -39 -141 -39 -32 -53 -28
-57 16 -2 19 -8 38 -13 44 -5 5 -9 25 -9 45 0 19 -5 42 -10 50 -13 20 12 30
70 27 43 -2 46 -4 58 -41z m-1035 5 c10 -10 -86 -26 -103 -16 -15 10 -12 23 8
29 23 6 83 -1 95 -13z m-168 -2 c11 -16 2 -20 -61 -25 l-59 -5 24 20 c25 22
85 29 96 10z m705 -15 c25 -64 7 -134 -42 -164 -45 -27 -48 -26 -48 20 0 22
-4 40 -10 40 -5 0 -10 15 -10 34 0 19 -4 46 -10 60 -8 22 -6 25 18 29 74 11
92 8 102 -19z m-1050 -6 c30 -10 32 -12 14 -19 -28 -11 -92 -11 -99 1 -3 6 4
14 17 19 31 13 30 13 68 -1z m-150 -8 c13 -9 13 -11 0 -20 -21 -14 -113 -13
-105 1 16 25 79 36 105 19z m705 -20 c19 -38 19 -73 -1 -116 -14 -29 -57 -64
-79 -64 -3 0 -5 15 -5 34 0 18 -6 39 -14 46 -8 6 -13 17 -10 24 3 7 -1 31 -9
54 l-14 41 36 4 c79 8 80 8 96 -23z m-1185 -16 c11 -11 -28 -24 -74 -24 -41 0
-47 2 -36 14 18 23 90 29 110 10z m176 -18 c29 -29 34 -41 34 -83 0 -64 -39
-122 -82 -123 -14 0 -18 8 -18 33 0 18 -4 37 -9 43 -5 5 -11 27 -13 49 -3 22
-8 48 -12 57 -7 14 0 17 46 21 l53 3 -62 2 c-58 2 -73 9 -56 25 3 4 24 7 46 7
31 0 46 -7 73 -34z m510 16 c24 -37 26 -80 6 -124 -22 -50 -67 -82 -82 -58 -6
8 -10 27 -10 43 0 15 -4 27 -10 27 -5 0 -10 19 -10 43 0 23 -5 49 -10 57 -8
12 0 16 43 21 29 3 54 6 57 7 3 1 10 -6 16 -16z m-1032 -18 c33 -13 14 -24
-38 -24 -79 0 -87 27 -9 29 17 1 38 -2 47 -5z m-156 -16 c-3 -8 -26 -14 -59
-16 -50 -2 -52 -1 -35 13 25 19 100 21 94 3z m-332 -23 c17 -13 14 -14 -43
-15 -83 0 -85 25 -2 29 14 0 34 -6 45 -14z m-156 -5 c0 -13 -13 -17 -75 -23
l-50 -5 24 19 c25 20 101 27 101 9z m698 -15 c28 -61 6 -137 -48 -169 -37 -21
-37 -22 -43 22 -8 57 -25 135 -32 155 -6 15 0 17 52 17 54 0 61 -2 71 -25z
m-1033 -9 c18 -13 14 -14 -39 -17 -57 -4 -73 2 -61 21 9 15 78 12 100 -4z
m-160 -6 c8 -13 -6 -17 -75 -24 l-55 -5 24 19 c25 21 95 28 106 10z m695 -5
c38 -45 14 -152 -41 -180 -38 -20 -37 -20 -45 23 -4 20 -9 41 -12 46 -3 5 -6
23 -7 40 -1 17 -6 43 -10 59 l-7 27 55 0 c36 0 59 -5 67 -15z m-1031 -19 c24
-13 22 -14 -30 -18 -57 -5 -85 6 -59 22 21 14 61 12 89 -4z m-154 -5 c8 -14
-4 -18 -70 -26 l-60 -6 24 20 c24 22 95 29 106 12z m695 -17 c25 -65 2 -142
-50 -169 -40 -20 -40 -20 -40 24 0 22 -4 43 -10 46 -5 3 -10 19 -10 35 0 16
-4 40 -9 54 -12 30 -5 34 62 35 42 1 49 -2 57 -25z m-1043 -6 c28 -11 28 -11
-21 -20 -27 -5 -56 -6 -65 -3 -14 6 -14 8 3 21 24 17 46 18 83 2z m-150 -15
c3 -7 -16 -14 -52 -18 -66 -9 -78 -3 -38 19 31 18 84 17 90 -1z m701 -8 c28
-61 5 -143 -48 -170 -39 -20 -40 -20 -40 19 0 19 -4 37 -9 40 -4 3 -11 25 -14
48 -2 24 -8 51 -12 60 -7 18 10 24 76 27 29 1 38 -4 47 -24z m-1021 -19 c2 -2
-19 -7 -47 -11 -33 -5 -56 -3 -63 4 -10 10 -8 12 33 24 14 4 68 -8 77 -17z
m-183 8 c9 -3 16 -10 16 -15 0 -11 -59 -22 -96 -17 l-29 3 30 17 c32 18 54 22
79 12z m711 -24 c27 -53 10 -131 -36 -164 -35 -24 -47 -20 -55 22 -4 20 -9 41
-12 46 -2 4 -6 26 -7 48 -2 21 -9 45 -15 53 -9 11 -5 14 22 18 80 10 87 8 103
-23z m-1051 0 c43 -16 30 -30 -28 -30 -59 0 -81 15 -44 29 30 13 42 13 72 1z
m-146 -9 c25 -16 -14 -32 -70 -29 l-53 3 30 17 c32 19 72 23 93 9z m706 -25
c20 -43 20 -69 0 -112 -18 -38 -49 -64 -76 -64 -14 0 -18 8 -18 39 0 22 -4 42
-8 45 -5 3 -9 21 -10 41 -1 19 -6 44 -12 55 -9 17 -6 19 32 23 24 2 50 4 59 5
10 1 23 -12 33 -32z m-1204 -6 c27 -17 -4 -31 -61 -28 l-54 3 35 17 c40 20 59
22 80 8z m164 4 c33 -13 14 -24 -38 -24 -51 0 -74 9 -59 24 8 8 76 8 97 0z
m553 -62 c7 -50 -10 -95 -45 -122 -37 -30 -52 -26 -52 14 0 19 -4 37 -9 40 -4
3 -11 25 -14 48 -2 24 -8 51 -12 60 -6 14 1 17 47 20 64 4 78 -6 85 -60z
m-1041 23 c17 -13 14 -14 -43 -15 -35 0 -63 4 -63 9 0 23 77 28 106 6z m-158
-7 c-5 -14 -118 -29 -118 -16 0 14 36 27 78 28 31 0 42 -4 40 -12z m703 -28
c16 -51 -1 -110 -38 -139 -40 -32 -50 -27 -63 37 -6 31 -16 73 -21 92 -5 19
-9 38 -9 43 0 4 27 7 60 7 l59 0 12 -40z m-1211 10 c23 -15 1 -27 -57 -32 -61
-6 -67 3 -20 26 37 18 56 20 77 6z m175 -4 c18 -13 14 -14 -39 -17 -35 -3 -61
0 -67 8 -20 24 75 32 106 9z m544 -42 c13 -36 13 -47 0 -80 -15 -38 -73 -89
-90 -78 -5 3 -9 20 -9 38 0 17 -4 36 -9 42 -5 5 -11 27 -13 49 -3 22 -8 48
-13 58 -7 16 -2 18 56 15 l64 -3 14 -41z m-1035 6 c7 -7 -5 -10 -37 -11 -26
-1 -52 -2 -59 -3 -19 -2 -20 22 -1 27 25 8 84 0 97 -13z m-169 -1 c10 -15 7
-15 -60 -23 l-60 -6 24 20 c25 21 85 27 96 9z m705 -19 c18 -44 7 -107 -26
-141 -39 -41 -64 -39 -64 5 0 19 -4 37 -9 40 -4 3 -11 25 -14 48 -2 24 -8 51
-12 61 -6 15 0 17 53 17 57 0 60 -1 72 -30z m-1035 -3 c16 -12 12 -15 -36 -20
-32 -4 -58 -2 -64 4 -26 26 66 40 100 16z m-162 -12 c-2 -12 -69 -27 -103 -23
l-25 3 30 17 c31 18 101 20 98 3z m702 -15 c19 -38 19 -73 -1 -116 -14 -28
-57 -64 -77 -64 -3 0 -8 17 -12 37 -4 21 -9 42 -12 47 -4 5 -8 27 -10 49 -2
22 -8 46 -14 53 -11 14 9 20 73 23 32 1 40 -3 53 -29z m-1211 -6 c9 -3 16 -10
16 -15 0 -11 -59 -22 -96 -17 l-29 3 35 17 c38 19 50 21 74 12z m175 -3 c9 -6
-3 -11 -37 -16 -54 -7 -85 1 -61 16 18 11 80 11 98 0z m547 -28 c21 -50 10
-99 -31 -140 -46 -46 -65 -44 -65 6 0 22 -4 43 -10 46 -5 3 -10 23 -10 43 0
20 -5 44 -10 52 -10 17 17 27 78 29 29 1 35 -3 48 -36z m-1056 5 c30 -10 32
-12 14 -19 -28 -11 -92 -11 -99 1 -3 6 4 14 17 19 31 13 30 13 68 -1z m-150
-8 c13 -9 13 -11 0 -20 -15 -10 -110 -14 -110 -5 0 9 55 34 75 34 11 1 27 -4
35 -9z m706 -22 c24 -45 14 -112 -22 -149 -39 -41 -64 -39 -64 5 0 19 -4 37
-9 40 -4 3 -11 25 -14 48 -2 24 -8 51 -12 60 -7 17 -5 17 87 26 10 1 24 -11
34 -30z m-1187 -14 c14 -13 -23 -25 -70 -22 l-54 3 35 18 c30 14 75 15 89 1z
m155 10 c33 -13 14 -24 -38 -24 -51 0 -74 9 -59 24 8 8 76 8 97 0z m545 -37
c18 -48 7 -103 -29 -139 -40 -39 -57 -36 -65 12 -4 22 -11 42 -15 45 -5 3 -7
12 -4 19 3 7 -1 31 -9 54 l-14 41 51 4 c70 4 69 5 85 -36z m-1045 7 c33 -13
14 -24 -38 -24 -79 0 -87 27 -9 29 17 1 38 -2 47 -5z m561 -68 c9 -45 -16
-101 -56 -125 -18 -11 -36 -18 -41 -15 -4 3 -8 23 -8 45 0 21 -4 39 -10 39 -5
0 -10 15 -10 34 0 19 -4 46 -10 60 -9 25 -8 25 43 28 60 3 82 -13 92 -66z
m-705 55 c0 -14 -27 -21 -78 -21 -44 1 -46 2 -28 15 21 16 106 21 106 6z m198
-46 c28 -61 6 -137 -48 -169 -38 -22 -40 -21 -40 23 0 22 -4 42 -9 45 -4 3
-11 25 -14 48 -2 24 -8 51 -12 61 -6 15 0 17 52 17 54 0 61 -2 71 -25z"/>
<path d="M11324 10420 c-121 -25 -124 -27 -124 -72 0 -37 2 -40 23 -34 145 45
219 46 262 6 30 -28 40 -75 26 -113 -14 -37 -80 -66 -148 -67 l-53 0 0 -41 0
-40 53 6 c115 15 187 -34 187 -127 0 -41 -5 -54 -28 -78 -50 -49 -174 -66
-262 -35 -23 8 -45 15 -48 15 -5 0 4 -79 10 -85 2 -2 35 -9 73 -15 118 -19
246 11 302 72 30 32 43 71 43 130 0 84 -43 146 -114 164 l-27 7 39 23 c99 59
89 210 -17 264 -47 23 -138 33 -197 20z"/>
<path d="M10708 10357 l-78 -22 0 -43 c0 -36 3 -43 15 -38 29 11 137 37 140
34 4 -4 35 -435 35 -480 l0 -28 -70 0 -70 0 0 -41 0 -42 58 6 c31 4 117 9 190
13 l132 7 0 40 0 40 -75 -6 c-67 -6 -75 -5 -75 11 0 32 -31 487 -36 530 l-5
42 -42 -1 c-23 -1 -77 -11 -119 -22z"/>
<path d="M10155 10331 c-91 -41 -130 -130 -129 -291 0 -243 84 -380 232 -380
84 0 146 36 185 108 70 128 50 393 -39 509 -52 68 -164 93 -249 54z m165 -89
c43 -43 56 -82 71 -207 11 -97 -1 -199 -27 -244 -18 -31 -67 -61 -99 -61 -73
0 -126 80 -146 219 -21 150 5 275 65 312 51 31 92 25 136 -19z"/>
<path d="M9560 10300 c-20 -5 -57 -18 -84 -29 -42 -18 -47 -24 -42 -44 3 -12
6 -32 6 -44 0 -21 1 -20 56 9 69 38 164 49 211 25 31 -16 63 -70 63 -104 -1
-29 -38 -103 -78 -152 -20 -25 -78 -95 -129 -154 -83 -97 -93 -112 -93 -147 0
-25 5 -40 12 -40 36 0 348 21 376 26 29 4 32 8 32 40 l0 36 -117 -6 c-65 -4
-136 -10 -158 -13 -48 -7 -53 -15 92 156 107 126 137 173 148 232 16 84 -48
185 -130 208 -46 12 -114 13 -165 1z"/>
<path d="M4948 9717 c-7 -8 -42 -122 -78 -255 -36 -133 -68 -242 -71 -242 -4
0 -62 106 -130 235 -135 256 -126 245 -206 229 l-30 -6 163 -299 c90 -164 164
-305 164 -312 0 -7 -9 -41 -21 -76 -24 -70 -42 -86 -111 -95 l-47 -7 6 -37 c3
-20 8 -39 10 -41 6 -8 96 -1 130 10 43 14 87 66 107 126 15 47 216 770 216
779 0 11 -90 2 -102 -9z"/>
<path d="M4270 9674 c-48 -15 -73 -33 -107 -77 l-22 -29 -5 24 c-3 12 -7 32
-8 43 -3 17 -10 19 -53 16 -28 -1 -51 -3 -52 -4 0 -1 15 -144 36 -317 l37
-315 39 -3 c68 -4 68 -5 45 184 -26 216 -25 249 3 304 34 68 65 85 151 85 l73
0 -4 40 c-3 22 -6 46 -9 53 -5 16 -67 14 -124 -4z"/>
<path d="M3490 9620 c-25 -6 -73 -20 -108 -32 l-64 -22 7 -46 c4 -25 8 -46 9
-47 1 -1 24 9 52 22 98 47 217 51 280 10 29 -19 64 -72 64 -97 0 -19 -18 -23
-138 -33 -148 -13 -225 -55 -258 -141 -52 -135 49 -284 193 -284 92 0 142 18
194 70 l47 47 6 -41 6 -41 51 4 51 3 -7 72 c-20 206 -45 367 -65 413 -25 58
-70 106 -120 127 -47 19 -144 27 -200 16z m255 -405 c-13 -105 -84 -174 -178
-175 -87 0 -137 48 -137 133 0 80 52 109 225 125 74 7 81 6 88 -13 5 -11 6
-42 2 -70z"/>
<path d="M793 9603 c-24 -2 -43 -8 -43 -12 0 -6 78 -682 94 -816 3 -22 0 -62
-6 -88 -11 -55 -50 -87 -105 -87 -40 0 -46 -10 -38 -62 l7 -41 56 6 c79 8 142
43 171 97 39 70 37 140 -17 595 -38 328 -51 410 -62 411 -8 0 -34 -1 -57 -3z"/>
<path d="M2994 9557 c-2 -7 4 -88 16 -179 26 -216 26 -263 -3 -312 -42 -74
-161 -106 -224 -60 -60 44 -75 106 -116 509 -2 18 -8 20 -52 16 -27 -1 -51 -4
-53 -6 -10 -9 50 -440 68 -487 60 -160 251 -200 373 -78 51 51 49 51 59 -15 3
-17 10 -19 53 -16 28 1 51 3 52 4 2 3 -67 589 -72 615 -5 19 -12 22 -51 22
-27 0 -47 -5 -50 -13z"/>
<path d="M2075 9498 c-42 -15 -93 -55 -115 -90 l-18 -30 -7 51 -7 50 -46 -6
c-26 -3 -49 -7 -51 -10 -4 -3 54 -532 66 -602 6 -33 6 -33 51 -27 25 3 48 8
50 11 3 3 -5 92 -17 199 -27 227 -24 262 25 316 62 68 184 76 233 14 31 -39
39 -75 61 -264 11 -96 22 -191 25 -210 l6 -35 49 3 c60 5 58 -19 25 247 -32
270 -56 329 -148 374 -47 23 -130 27 -182 9z"/>
<path d="M1284 9440 c-23 -5 -68 -19 -100 -32 l-59 -23 4 -45 c1 -25 4 -46 5
-47 1 -1 24 9 51 22 132 65 276 53 325 -28 17 -28 27 -77 16 -77 -2 0 -49 -5
-104 -10 -219 -23 -296 -79 -295 -215 1 -142 100 -226 246 -211 70 7 124 33
165 81 l32 35 6 -40 7 -40 47 0 c25 0 49 2 51 5 8 8 -40 396 -56 451 -20 69
-64 127 -118 153 -52 25 -158 35 -223 21z m264 -361 c7 -89 -34 -169 -102
-200 -57 -26 -115 -24 -157 4 -93 63 -74 186 33 216 42 11 193 30 213 26 6 -1
11 -21 13 -46z"/>
<path d="M11783 9161 l-17 -29 -19 24 c-10 14 -29 24 -43 24 -13 0 -24 -2 -24
-4 0 -2 16 -27 35 -56 19 -29 35 -60 35 -70 0 -10 7 -23 15 -30 17 -14 18 -13
35 70 6 30 13 65 16 77 9 33 -14 29 -33 -6z"/>
<path d="M11592 9162 c-12 -8 -32 -101 -32 -149 0 -28 15 -29 37 -3 19 21 48
26 58 10 3 -5 15 -10 27 -10 17 0 19 4 13 28 -11 44 -59 127 -75 129 -8 2 -21
-1 -28 -5z m29 -95 c-8 -8 -11 -3 -11 19 1 25 2 27 11 11 8 -14 8 -22 0 -30z"/>
<path d="M11386 9141 c-4 -5 -1 -44 5 -86 l12 -77 44 5 c58 6 83 30 83 79 0
56 -34 88 -94 88 -25 0 -47 -4 -50 -9z m81 -29 c22 -14 27 -67 8 -85 -22 -23
-32 -15 -40 33 -9 53 2 71 32 52z"/>
<path d="M11214 9113 c2 -10 8 -41 11 -70 7 -51 27 -94 40 -81 7 6 13 31 14
57 1 10 13 3 35 -18 22 -22 40 -31 51 -28 14 6 14 9 0 31 -12 17 -14 35 -9 60
10 54 -6 66 -83 66 -56 0 -64 -2 -59 -17z m96 -28 c0 -9 -7 -18 -16 -22 -18
-7 -39 11 -30 26 11 17 46 13 46 -4z"/>
<path d="M11159 9113 c-1 -5 0 -33 1 -64 1 -44 -2 -58 -14 -62 -17 -7 -36 26
-36 61 0 37 -13 62 -31 62 -28 0 -33 -22 -19 -80 15 -62 32 -80 75 -80 52 0
68 23 60 84 -8 66 -14 86 -26 86 -5 0 -10 -3 -10 -7z"/>
<path d="M10968 9100 c-59 -7 -68 -16 -35 -31 21 -10 27 -21 32 -58 12 -96 39
-101 43 -8 2 48 7 70 17 74 8 3 15 9 15 13 0 13 -23 16 -72 10z"/>
<path d="M10811 9076 c-17 -20 -34 -147 -22 -159 6 -6 16 -1 27 12 19 22 49
28 59 11 9 -15 45 -12 45 4 0 7 -10 35 -21 62 -35 79 -62 101 -88 70z m30 -89
c-8 -8 -11 -3 -11 19 1 25 2 27 11 11 8 -14 8 -22 0 -30z"/>
<path d="M10648 9058 c-38 -31 -29 -63 23 -81 46 -16 47 -32 4 -32 -42 0 -47
-15 -12 -33 38 -18 97 7 97 41 0 28 -17 45 -54 55 -31 8 -33 28 -3 24 12 -1
28 0 37 3 13 6 12 9 -4 21 -24 17 -67 18 -88 2z"/>
<path d="M9968 8975 c-14 -30 -19 -31 -36 -5 -10 17 -62 30 -62 15 0 -2 13
-25 29 -51 17 -25 33 -59 36 -75 4 -19 13 -29 24 -29 15 0 19 11 24 58 4 31
10 69 13 85 8 35 -12 36 -28 2z"/>
<path d="M9761 8943 c-5 -21 -12 -59 -15 -85 -5 -42 -3 -48 13 -48 10 0 21 7
25 15 7 18 39 19 66 3 34 -21 41 2 17 57 -36 82 -46 95 -72 95 -20 0 -26 -7
-34 -37z m49 -49 c0 -8 -4 -14 -10 -14 -5 0 -10 9 -10 21 0 11 5 17 10 14 6
-3 10 -13 10 -21z"/>
<path d="M9568 8955 c-6 -7 16 -152 25 -161 15 -15 90 11 110 38 18 24 19 32
8 67 -6 23 -20 45 -31 51 -19 10 -103 14 -112 5z m90 -37 c18 -18 15 -75 -4
-82 -9 -4 -19 -4 -22 -2 -8 8 -20 85 -14 91 9 9 27 6 40 -7z"/>
<path d="M9501 8903 c2 -72 12 -107 32 -111 14 -3 17 4 17 33 0 55 -20 125
-36 125 -10 0 -14 -13 -13 -47z"/>
<path d="M9333 8924 c-6 -16 12 -142 21 -151 12 -13 36 9 36 32 0 32 10 32 40
0 13 -14 32 -25 42 -25 22 0 22 8 3 34 -10 13 -13 32 -9 56 8 51 -13 70 -77
70 -36 0 -51 -4 -56 -16z m86 -27 c13 -16 5 -27 -20 -27 -21 0 -33 15 -24 30
9 14 31 12 44 -3z"/>
<path d="M9212 8923 c-21 -4 -23 -9 -18 -36 3 -18 8 -51 12 -74 10 -67 54 -86
54 -24 0 24 5 30 30 35 31 6 41 25 15 27 -8 1 -19 3 -25 4 -5 1 -14 3 -20 4
-22 3 -8 29 21 37 17 5 31 14 32 19 2 11 -63 16 -101 8z"/>
<path d="M8546 8845 c-9 -9 -16 -23 -16 -31 0 -8 -4 -14 -10 -14 -5 0 -10 4
-10 10 0 16 -46 41 -63 34 -14 -5 -13 -10 8 -37 13 -18 33 -54 44 -80 23 -53
45 -58 48 -11 2 16 8 53 14 82 12 60 9 70 -15 47z"/>
<path d="M8336 8822 c-5 -9 -26 -127 -26 -149 0 -18 29 -16 36 1 9 23 33 27
65 11 27 -14 30 -14 36 1 3 9 -7 44 -25 80 -26 53 -36 64 -56 64 -14 0 -27 -4
-30 -8z m44 -78 c0 -8 -4 -14 -10 -14 -5 0 -10 9 -10 21 0 11 5 17 10 14 6 -3
10 -13 10 -21z"/>
<path d="M8152 8813 c-19 -4 -22 -9 -17 -36 3 -18 9 -54 13 -82 7 -50 7 -50
42 -47 66 7 85 22 88 73 5 73 -44 110 -126 92z m82 -49 c11 -28 6 -61 -9 -74
-21 -17 -31 -5 -39 48 -6 39 -5 42 18 42 13 0 27 -7 30 -16z"/>
<path d="M8006 8784 c-32 -32 -18 -63 38 -81 17 -5 32 -15 34 -22 3 -10 -5
-12 -37 -6 -33 5 -41 4 -41 -9 0 -20 15 -28 56 -28 36 0 74 25 74 48 0 20 -30
44 -61 51 -16 3 -29 12 -29 20 0 11 8 12 35 7 36 -6 44 3 23 24 -17 17 -74 15
-92 -4z"/>
<path d="M7843 8783 c-13 -2 -23 -7 -23 -11 0 -31 23 -139 32 -149 14 -17 28
-7 28 21 0 37 12 38 47 4 24 -23 36 -29 44 -21 8 8 8 17 -1 33 -7 13 -9 36 -6
56 12 59 -33 84 -121 67z m77 -47 c0 -16 -27 -29 -41 -20 -19 11 -9 34 16 34
15 0 25 -6 25 -14z"/>
<path d="M7765 8771 c-3 -6 -3 -36 0 -66 6 -46 5 -56 -9 -61 -23 -9 -27 -3
-40 62 -12 59 -21 70 -45 55 -12 -8 -13 -21 -5 -67 11 -70 43 -100 93 -89 43
9 51 29 39 100 -9 62 -21 85 -33 66z"/>
<path d="M7585 8748 c-2 -7 -3 -22 -2 -33 1 -14 -5 -21 -19 -23 -17 -2 -24 5
-33 28 -17 49 -37 32 -33 -28 5 -70 16 -106 35 -110 12 -2 16 6 19 35 4 51 33
58 46 11 5 -20 16 -34 27 -37 17 -3 18 3 11 70 -6 69 -18 99 -38 99 -5 0 -11
-6 -13 -12z"/>
<path d="M7385 8733 c-35 -8 -40 -22 -12 -32 20 -8 27 -19 32 -48 13 -78 15
-84 33 -81 14 3 16 13 14 69 -3 53 -1 67 12 72 48 19 -17 35 -79 20z"/>
<path d="M7006 8684 c-9 -8 -16 -23 -16 -31 0 -12 -7 -9 -25 11 -20 21 -65 37
-65 22 0 -2 16 -30 35 -62 19 -32 35 -66 35 -76 0 -11 7 -18 20 -18 16 0 20 7
20 33 0 17 7 53 15 79 15 50 7 68 -19 42z"/>
<path d="M6810 8661 c-6 -12 -13 -50 -17 -86 -5 -57 -4 -65 11 -65 9 0 19 7
22 15 7 17 49 20 59 5 9 -14 45 -12 45 3 0 6 -15 41 -33 77 -35 71 -66 89 -87
51z m44 -83 c-9 -14 -24 2 -24 25 1 21 1 21 15 3 8 -10 12 -23 9 -28z"/>
<path d="M6624 8608 c16 -130 15 -128 89 -107 45 12 62 42 53 93 -9 46 -39 66
-100 66 l-49 0 7 -52z m84 10 c18 -18 15 -77 -4 -85 -21 -8 -34 14 -34 60 0
38 15 48 38 25z"/>
<path d="M6512 8643 c-7 -3 -18 -16 -23 -30 -12 -33 2 -50 52 -63 50 -14 53
-35 4 -27 -22 4 -46 0 -63 -9 -39 -20 -72 -18 -72 5 0 13 9 20 30 25 39 7 38
24 -2 28 -44 4 -46 24 -3 32 23 5 35 13 35 23 0 13 -8 15 -46 9 -26 -3 -53 -6
-62 -6 -15 0 -14 -36 4 -138 l6 -32 52 6 c28 4 56 10 62 15 5 5 27 6 47 2 76
-12 121 59 57 92 -16 8 -36 15 -45 15 -8 0 -15 4 -15 8 0 16 12 21 34 12 35
-13 53 4 25 24 -23 16 -52 19 -77 9z"/>
<path d="M10753 8617 l-103 -10 0 -83 c0 -45 3 -89 6 -98 9 -22 60 -20 90 3
33 26 77 12 94 -29 15 -35 6 -66 -25 -86 -21 -14 -26 -14 -54 1 -17 8 -31 20
-31 25 0 12 -40 13 -59 1 -36 -23 55 -91 121 -91 54 0 111 39 127 86 17 50 10
84 -28 126 -25 28 -36 33 -78 33 -26 0 -58 -4 -69 -8 -17 -6 -23 -3 -27 12 -8
32 8 43 79 55 68 11 69 12 72 44 2 17 0 31 -5 30 -4 -1 -54 -6 -110 -11z"/>
<path d="M6290 8584 l0 -38 -33 32 c-49 47 -67 43 -66 -15 2 -73 12 -107 33
-111 16 -3 18 2 14 42 l-3 46 33 -40 c46 -55 62 -53 61 8 -2 64 -11 105 -26
110 -9 2 -13 -8 -13 -34z"/>
<path d="M6018 8595 c-3 -3 11 -113 21 -162 2 -8 57 -1 86 11 22 10 37 24 41
40 8 33 -13 93 -36 106 -19 10 -103 14 -112 5z m90 -37 c18 -18 15 -77 -4 -85
-21 -8 -34 14 -34 60 0 38 15 48 38 25z"/>
<path d="M5892 8583 c-21 -4 -23 -9 -18 -36 3 -18 8 -55 12 -84 l6 -52 47 5
c59 7 71 11 71 23 0 5 -17 11 -37 13 -50 4 -58 33 -13 42 40 8 35 30 -8 34
-43 4 -41 18 4 29 20 4 37 13 37 18 2 11 -63 16 -101 8z"/>
<path d="M5826 8568 c-2 -7 -7 -26 -11 -43 l-7 -30 -19 38 c-27 52 -49 42 -64
-28 l-6 -29 -19 42 c-20 44 -50 57 -50 22 0 -20 42 -112 63 -138 15 -19 37 5
37 43 0 48 11 50 31 4 22 -47 48 -50 60 -7 14 52 15 131 2 135 -7 3 -15 -1
-17 -9z"/>
<path d="M5181 8484 l-12 -27 -20 22 c-11 11 -31 21 -45 21 l-25 0 30 -43 c16
-24 33 -59 38 -78 16 -62 38 -48 53 33 7 40 15 79 17 86 10 24 -24 11 -36 -14z"/>
<path d="M4981 8468 c-5 -13 -12 -51 -16 -85 -8 -69 4 -82 38 -43 16 19 19 19
47 5 60 -31 64 -13 19 81 -25 53 -34 64 -55 64 -16 0 -27 -8 -33 -22z m49 -64
c0 -8 -4 -14 -10 -14 -5 0 -10 9 -10 21 0 11 5 17 10 14 6 -3 10 -13 10 -21z"/>
<path d="M4784 8438 c3 -18 8 -57 12 -87 l7 -53 41 6 c62 10 86 30 86 72 0 36
-15 73 -34 86 -6 4 -35 8 -65 8 l-53 0 6 -32z m96 -17 c14 -28 12 -57 -5 -71
-22 -18 -35 -2 -42 49 -5 37 -3 41 15 41 12 0 26 -9 32 -19z"/>
<path d="M9149 8463 c-41 -5 -38 -1 -100 -152 -22 -52 -39 -107 -39 -123 l0
-29 58 6 c31 3 67 8 79 10 18 4 22 -1 28 -35 7 -39 8 -40 46 -40 l39 0 0 41
c0 32 4 42 20 46 14 4 20 14 20 34 0 23 -5 28 -27 31 -27 3 -28 5 -43 108 -16
113 -14 110 -81 103z m4 -170 l6 -51 -40 -4 c-22 -2 -42 -1 -44 2 -1 3 11 36
28 74 34 75 39 73 50 -21z"/>
<path d="M4662 8444 c-16 -11 -22 -24 -20 -42 2 -21 11 -29 42 -37 64 -18 60
-39 -5 -30 -53 7 -106 23 -81 24 26 2 10 20 -23 27 -34 6 -49 24 -21 24 8 0
27 5 42 10 46 18 14 34 -51 25 l-57 -7 7 -44 c8 -56 -17 -62 -31 -7 -14 55
-34 55 -34 -1 0 -39 -3 -46 -19 -46 -14 0 -21 10 -26 33 -9 41 -23 57 -41 50
-11 -4 -15 -18 -13 -51 3 -37 0 -46 -16 -52 -11 -4 -23 -2 -27 4 -13 19 -9 56
7 62 8 4 15 12 15 20 0 10 -11 12 -47 8 -27 -3 -54 -7 -60 -10 -18 -5 -16 -24
1 -24 18 0 26 -13 36 -55 7 -31 5 -35 -23 -46 -154 -64 -355 -270 -431 -443
-65 -146 -80 -319 -37 -429 42 -108 120 -185 228 -228 46 -18 79 -23 161 -23
64 -1 105 3 110 10 4 6 29 16 57 23 71 18 184 72 257 124 107 77 234 221 291
332 24 48 57 156 56 184 -1 18 -5 10 -14 -24 -45 -177 -146 -322 -317 -450
-290 -218 -641 -201 -756 37 -25 51 -53 170 -42 178 4 3 13 37 20 75 35 191
130 344 297 476 79 63 219 130 292 138 31 4 61 10 68 14 7 4 48 3 93 -2 64 -8
98 -20 171 -57 95 -50 121 -79 149 -166 16 -51 34 -49 27 2 -8 58 -41 121 -92
171 -24 24 -41 47 -38 52 3 5 0 13 -7 17 -9 6 -8 14 5 33 16 25 16 27 -9 52
-14 14 -34 25 -46 25 -11 0 -20 7 -20 15 0 17 5 18 29 6 10 -6 23 -6 32 0 12
8 11 12 -5 24 -26 19 -56 19 -84 -1z"/>
<path d="M3531 8313 l-13 -28 -15 23 c-10 14 -26 22 -45 22 l-29 0 29 -42 c16
-24 35 -60 42 -81 18 -58 43 -47 51 23 3 30 9 67 13 83 6 20 5 27 -6 27 -8 0
-21 -12 -27 -27z"/>
<path d="M3331 8298 c-5 -13 -12 -51 -16 -85 -6 -55 -5 -63 9 -63 9 0 19 7 22
15 7 17 59 21 69 5 10 -16 35 -12 35 5 0 9 -13 45 -29 80 -26 56 -33 65 -56
65 -17 0 -28 -7 -34 -22z m49 -64 c0 -14 -12 -19 -23 -8 -9 9 4 35 14 28 5 -3
9 -12 9 -20z"/>
<path d="M3152 8303 c-21 -4 -23 -9 -18 -36 3 -18 8 -56 12 -84 l7 -53 41 6
c62 10 86 28 86 69 0 57 -15 83 -57 94 -21 6 -40 10 -43 10 -3 -1 -16 -4 -28
-6z m82 -71 c7 -26 6 -36 -7 -50 -22 -21 -34 -8 -43 46 -7 42 -6 44 17 40 17
-2 26 -12 33 -36z"/>
<path d="M3074 8287 c-3 -10 -4 -29 -2 -42 3 -14 4 -25 3 -25 -2 0 -19 16 -38
35 -60 60 -81 29 -56 -85 8 -39 15 -50 27 -48 14 3 16 13 14 48 l-4 45 31 -42
c19 -26 39 -43 51 -43 23 0 23 3 9 90 -11 69 -24 94 -35 67z"/>
<path d="M4810 8265 c13 -14 26 -25 28 -25 3 0 -5 11 -18 25 -13 14 -26 25
-28 25 -3 0 5 -11 18 -25z"/>
<path d="M7433 8271 c-18 -11 -39 -34 -47 -50 -15 -28 -15 -30 4 -36 21 -7 60
10 60 25 0 15 39 32 60 25 27 -9 43 -41 32 -62 -5 -9 -25 -21 -43 -27 -24 -8
-34 -17 -34 -31 0 -16 9 -21 44 -26 64 -8 94 -64 55 -103 -26 -27 -60 -19 -92
20 -24 29 -33 34 -56 28 -14 -3 -28 -10 -31 -14 -7 -12 43 -68 76 -85 69 -36
167 -6 195 60 17 42 8 72 -36 108 l-31 27 22 30 c18 24 21 35 13 57 -22 63
-129 93 -191 54z"/>
<path d="M2830 8243 c-38 -48 0 -126 63 -131 29 -3 39 2 53 23 20 30 14 87
-12 116 -26 29 -78 25 -104 -8z m70 -23 c14 -26 9 -72 -7 -78 -17 -5 -36 46
-28 75 7 28 21 29 35 3z"/>
<path d="M2723 8248 c-6 -7 -15 -26 -20 -43 l-10 -30 -16 38 c-14 31 -21 37
-47 37 -17 0 -33 -6 -35 -12 -2 -7 1 -44 8 -83 9 -53 16 -71 30 -73 14 -3 17
4 17 40 l1 43 20 -37 c29 -56 59 -47 59 17 0 13 5 27 10 30 6 4 10 -6 10 -22
0 -16 7 -38 15 -49 12 -16 16 -17 24 -4 5 8 8 26 6 40 -2 14 -7 46 -10 73 -5
41 -9 47 -29 47 -13 0 -28 -6 -33 -12z"/>
<path d="M1871 8143 l-13 -28 -15 23 c-10 14 -26 22 -45 22 l-29 0 29 -42 c16
-24 35 -60 42 -81 17 -54 44 -47 48 13 1 25 7 58 12 74 13 38 13 46 -3 46 -8
0 -20 -12 -26 -27z"/>
<path d="M1671 8128 c-5 -13 -12 -51 -16 -85 -6 -55 -5 -63 9 -63 9 0 19 6 22
14 9 23 35 28 60 11 53 -34 57 -12 15 80 -26 56 -33 65 -56 65 -17 0 -28 -7
-34 -22z m49 -64 c0 -14 -12 -19 -23 -8 -9 9 4 35 14 28 5 -3 9 -12 9 -20z"/>
<path d="M1414 8117 c-3 -10 -4 -29 -2 -42 3 -14 4 -25 3 -25 -2 0 -19 16 -38
35 -24 24 -40 33 -52 29 -15 -6 -17 -16 -11 -70 8 -80 14 -96 35 -92 13 3 15
13 13 48 l-4 45 31 -42 c30 -42 53 -53 66 -34 7 13 -14 143 -25 155 -6 6 -12
3 -16 -7z"/>
<path d="M1474 8098 c3 -18 8 -57 12 -86 l7 -53 41 7 c76 12 95 37 82 109 -8
43 -30 55 -96 55 l-52 0 6 -32z m97 -25 c11 -29 -1 -73 -20 -73 -14 0 -19 12
-27 58 -6 38 -5 42 15 42 14 0 25 -9 32 -27z"/>
<path d="M5808 8105 c-30 -17 -58 -62 -58 -95 0 -15 6 -20 29 -20 23 0 34 8
50 35 23 39 58 47 85 19 32 -32 12 -78 -80 -175 -35 -38 -64 -75 -64 -83 0
-41 5 -42 128 -29 64 7 123 15 130 18 8 3 12 16 10 32 -3 26 -3 26 -78 24
l-75 -2 38 31 c48 41 87 108 87 151 0 23 -9 46 -28 69 -26 30 -35 34 -88 37
-40 2 -68 -2 -86 -12z"/>
<path d="M1248 8043 c-2 -52 -7 -68 -19 -71 -11 -2 -19 13 -30 60 -11 52 -18
63 -34 63 -18 0 -20 -6 -17 -49 3 -74 20 -100 64 -104 48 -4 78 12 78 43 0 39
-21 125 -30 125 -5 0 -10 -30 -12 -67z"/>
<path d="M1015 8065 c-14 -13 -25 -29 -25 -34 0 -14 38 -38 73 -46 43 -11 33
-28 -13 -22 -45 6 -63 -9 -35 -30 42 -30 115 -3 115 41 0 17 -10 28 -34 40
-19 9 -39 16 -45 16 -6 0 -11 5 -11 11 0 7 12 9 34 5 42 -8 54 7 24 28 -32 22
-55 20 -83 -9z"/>
<path d="M4192 7913 c-60 -47 -73 -70 -54 -100 6 -9 18 -4 45 18 l36 30 5 -23
c12 -52 26 -143 26 -165 0 -20 -5 -23 -39 -23 -45 0 -63 -16 -54 -49 5 -21 9
-22 58 -16 28 3 89 10 134 14 45 5 84 11 88 14 3 3 2 18 -1 33 -6 24 -10 26
-51 22 -51 -4 -44 -21 -71 170 -21 146 -25 148 -122 75z"/>
<path d="M11212 7263 c-57 -28 -83 -105 -39 -117 16 -4 27 0 39 17 50 66 76
74 104 32 23 -35 7 -68 -77 -162 -64 -69 -85 -112 -61 -126 9 -6 239 20 252
28 6 4 10 18 10 32 l0 26 -75 -5 c-41 -3 -75 -3 -75 -1 0 2 14 16 32 31 43 37
88 110 88 145 0 91 -107 145 -198 100z"/>
<path d="M10964 7247 c-11 -7 -42 -29 -67 -51 -36 -29 -47 -45 -47 -67 0 -35
5 -36 52 -4 l37 25 5 -32 c3 -18 11 -62 17 -97 5 -34 8 -66 4 -69 -3 -3 -24
-8 -48 -11 -35 -5 -43 -10 -45 -30 -2 -13 0 -27 5 -31 6 -6 272 15 279 23 1 1
0 14 -3 30 -5 25 -9 27 -52 27 l-47 0 -18 128 c-26 187 -25 186 -72 159z"/>
<path d="M9610 7085 c-24 -20 -51 -40 -61 -46 -19 -9 -27 -58 -12 -72 3 -4 22
5 40 19 19 15 38 22 42 18 7 -8 31 -150 31 -181 0 -7 -11 -13 -24 -13 -41 0
-76 -18 -76 -39 0 -11 5 -23 10 -26 6 -3 71 -1 145 6 141 14 148 17 124 60 -9
17 -17 19 -50 14 -21 -4 -39 -5 -40 -3 0 1 -10 68 -22 148 -26 169 -33 177
-107 115z"/>
<path d="M9300 7055 c-24 -20 -51 -40 -61 -46 -13 -7 -19 -21 -19 -44 0 -19 3
-35 7 -35 3 0 21 12 40 26 19 14 37 24 39 21 4 -4 34 -169 34 -188 0 -4 -20
-10 -45 -13 -50 -8 -59 -17 -51 -50 5 -21 9 -22 58 -16 29 4 92 11 141 15 72
6 87 10 87 23 0 33 -19 47 -62 47 l-43 0 -20 145 c-24 169 -31 177 -105 115z"/>
<path d="M7973 6939 c-100 -30 -101 -269 -3 -339 38 -27 109 -27 144 1 38 30
59 110 46 177 -23 124 -98 188 -187 161z m79 -71 c17 -32 37 -166 29 -196 -14
-50 -63 -55 -80 -9 -5 13 -15 58 -22 100 -10 58 -10 82 -1 101 15 34 56 35 74
4z"/>
<path d="M7653 6873 c-49 -37 -63 -54 -63 -74 0 -39 10 -41 51 -8 l38 30 6
-38 c4 -21 11 -60 16 -86 15 -77 13 -87 -18 -87 -56 0 -74 -11 -71 -39 3 -30
9 -30 181 -16 104 9 118 16 97 55 -9 17 -19 21 -53 18 l-41 -3 -20 145 c-25
173 -28 176 -123 103z"/>
<path d="M6015 6735 c-49 -25 -65 -52 -65 -107 0 -41 5 -54 29 -78 36 -36 75
-47 115 -31 48 19 51 18 54 -12 5 -38 -22 -77 -53 -77 -13 0 -27 5 -30 10 -10
16 -75 12 -75 -4 0 -27 50 -56 97 -56 88 0 133 51 133 152 0 156 -100 256
-205 203z m94 -61 c28 -35 27 -79 -1 -98 -22 -16 -53 -8 -70 18 -13 20 -8 69
9 88 22 25 38 23 62 -8z"/>
<path d="M4372 6564 c-65 -33 -77 -107 -27 -154 l25 -23 -20 -32 c-59 -95 23
-166 159 -139 17 4 45 19 61 34 24 23 30 36 30 70 0 34 -6 47 -31 71 -30 28
-31 30 -15 54 23 35 20 60 -12 96 -24 27 -37 33 -83 36 -37 2 -64 -2 -87 -13z
m114 -59 c14 -21 15 -31 5 -51 -10 -22 -16 -25 -39 -19 -39 10 -52 24 -52 55
0 46 59 56 86 15z m12 -161 c44 -30 19 -84 -39 -84 -46 0 -77 58 -47 88 17 17
59 15 86 -4z"/>
<path d="M2745 6401 c-48 -6 -50 -7 -53 -39 l-3 -32 58 5 c32 3 70 8 86 10 31
5 33 -1 12 -32 -21 -30 -55 -166 -55 -220 l0 -44 47 3 46 3 -2 70 c-1 47 5 95
20 145 11 41 23 90 26 108 l5 32 -68 -2 c-38 0 -91 -4 -119 -7z"/>
<path d="M1140 6238 c-45 -24 -70 -74 -70 -143 0 -127 58 -215 143 -215 79 0
127 48 127 127 0 51 -53 103 -107 103 -21 0 -48 -7 -60 -15 -21 -15 -23 -14
-28 7 -3 13 -2 37 3 53 11 39 62 48 85 15 18 -26 67 -19 67 10 0 45 -110 84
-160 58z m104 -200 c19 -27 21 -79 4 -96 -49 -49 -119 48 -71 100 22 24 49 23
67 -4z"/>
<path d="M11433 5889 c-49 -14 -83 -62 -83 -116 0 -38 5 -50 34 -79 27 -27 42
-34 73 -34 21 0 48 7 59 15 12 8 24 11 28 8 11 -12 6 -58 -10 -81 -16 -23 -58
-30 -69 -12 -8 14 -62 13 -71 -1 -3 -6 5 -23 20 -38 50 -49 155 -28 188 39 22
44 23 131 2 193 -16 46 -72 107 -99 107 -7 0 -19 2 -27 4 -7 2 -27 0 -45 -5z
m81 -71 c21 -29 20 -67 -1 -90 -21 -23 -38 -23 -63 2 -22 22 -27 79 -8 98 19
19 55 14 72 -10z"/>
<path d="M11129 5835 c-23 -20 -50 -40 -60 -46 -13 -7 -19 -21 -19 -44 0 -19
3 -35 7 -35 3 0 21 12 40 26 19 14 37 23 40 20 5 -5 32 -156 33 -183 0 -7 -12
-13 -27 -13 -55 0 -73 -10 -73 -41 0 -20 5 -29 16 -29 48 0 260 23 267 30 4 4
3 19 -3 34 -9 25 -14 27 -52 24 l-41 -3 -19 125 c-23 165 -25 170 -47 170 -11
0 -38 -16 -62 -35z"/>
<path d="M9790 5719 c-84 -35 -102 -119 -37 -170 l20 -17 -21 -27 c-31 -39
-28 -80 7 -116 26 -25 37 -29 86 -29 65 0 116 19 139 51 29 42 17 104 -26 139
-19 15 -19 16 -2 47 22 38 12 76 -27 106 -31 23 -103 31 -139 16z m91 -60 c42
-42 3 -97 -49 -69 -33 19 -41 58 -16 77 25 18 41 16 65 -8z m4 -161 c30 -13
43 -52 25 -73 -16 -20 -74 -19 -94 1 -9 8 -16 24 -16 34 0 22 26 50 45 50 8 0
26 -5 40 -12z"/>
<path d="M9480 5654 c-61 -49 -65 -54 -56 -90 l7 -25 39 31 38 30 11 -52 c5
-29 13 -77 16 -105 l7 -53 -35 0 c-47 0 -67 -9 -67 -29 1 -40 10 -41 149 -27
73 8 135 16 138 20 3 3 2 17 -1 32 -6 24 -10 26 -51 22 -52 -4 -47 -16 -72
163 -17 127 -18 129 -43 128 -14 0 -49 -20 -80 -45z"/>
<path d="M8200 5554 c-8 -1 -36 -6 -62 -9 -45 -6 -48 -8 -48 -37 l0 -30 86 7
85 7 -20 -41 c-27 -52 -51 -153 -51 -215 0 -40 3 -47 16 -42 9 3 30 6 47 6
l32 0 1 98 c1 72 7 112 23 156 11 33 21 70 21 83 0 22 -4 23 -57 22 -32 -1
-65 -3 -73 -5z"/>
<path d="M7904 5527 c-55 -32 -114 -91 -114 -113 0 -35 16 -38 54 -9 31 24 35
25 40 8 11 -38 29 -174 23 -179 -3 -3 -24 -8 -47 -11 -44 -6 -58 -23 -44 -52
8 -16 17 -16 144 -3 74 7 136 15 139 17 2 2 1 16 -3 30 -6 22 -12 25 -51 25
-25 0 -45 1 -46 3 0 1 -10 67 -22 147 -23 153 -29 163 -73 137z"/>
<path d="M6541 5382 c-49 -24 -71 -73 -71 -152 0 -93 34 -161 96 -191 40 -19
51 -20 84 -10 21 6 51 26 65 43 24 28 27 39 22 82 -3 40 -11 55 -36 78 -36 32
-93 38 -128 13 -21 -15 -23 -14 -28 7 -16 69 34 111 80 68 18 -16 31 -21 49
-16 15 3 26 12 26 19 0 27 -74 77 -113 77 -7 0 -27 -8 -46 -18z m99 -192 c22
-22 27 -79 8 -98 -49 -49 -119 48 -71 100 21 23 38 23 63 -2z"/>
<path d="M6221 5319 c-59 -49 -70 -69 -53 -96 6 -10 17 -7 42 12 19 14 37 22
41 18 6 -8 29 -147 29 -178 0 -10 -10 -15 -31 -15 -46 0 -71 -17 -63 -43 3
-12 8 -23 9 -25 2 -2 64 2 139 9 130 11 136 13 136 34 0 33 -23 47 -63 40 -41
-8 -38 -16 -63 168 -17 119 -19 127 -40 127 -12 0 -50 -23 -83 -51z"/>
<path d="M4927 5220 c-43 -4 -81 -10 -84 -13 -3 -3 -2 -47 2 -97 7 -85 9 -91
32 -96 17 -5 34 0 53 15 36 26 64 27 90 1 40 -40 16 -120 -35 -120 -11 0 -31
11 -46 26 -20 19 -32 24 -53 18 -40 -10 -34 -32 18 -72 35 -27 112 -30 156 -7
56 29 80 118 46 170 -35 53 -112 74 -166 45 -16 -9 -21 -8 -26 4 -13 35 0 51
51 59 88 14 100 20 103 50 4 31 4 31 -141 17z"/>
<path d="M4615 5172 c-17 -15 -43 -37 -59 -48 -27 -19 -29 -25 -20 -53 l9 -32
38 31 c42 35 39 38 56 -61 19 -113 17 -119 -28 -119 -21 0 -43 -6 -49 -13 -13
-16 -4 -57 12 -57 37 1 258 29 263 34 3 3 2 17 -1 32 -7 25 -10 26 -51 21 -43
-4 -45 -4 -50 27 -9 59 -35 244 -35 255 0 21 -55 10 -85 -17z"/>
<path d="M3319 5063 c-10 -2 -19 -12 -22 -21 -3 -9 -24 -59 -46 -110 -23 -52
-41 -108 -41 -128 l0 -36 80 7 80 7 0 -25 c0 -42 10 -57 39 -57 42 0 55 14 48
49 -6 27 -3 33 18 43 38 17 30 68 -11 68 -18 0 -24 7 -28 33 -3 17 -10 65 -17
105 l-11 72 -36 -1 c-21 -1 -44 -3 -53 -6z m25 -129 c12 -91 11 -94 -34 -94
-22 0 -40 3 -40 8 0 14 54 132 61 132 3 0 9 -21 13 -46z"/>
<path d="M2966 4988 c-59 -46 -66 -55 -61 -77 9 -36 10 -36 49 -6 42 32 40 34
59 -87 15 -96 14 -98 -55 -98 -25 0 -28 -4 -28 -35 0 -32 2 -34 28 -30 15 2
78 9 140 16 l113 12 -3 26 c-3 23 -8 26 -50 29 l-46 3 -10 62 c-6 34 -16 101
-23 150 -10 69 -16 87 -29 87 -9 0 -46 -23 -84 -52z"/>
<path d="M1642 4883 c-36 -17 -72 -57 -72 -79 0 -24 51 -16 76 11 40 43 100
26 92 -27 -2 -16 -13 -26 -38 -34 -23 -8 -36 -19 -38 -33 -3 -18 2 -21 30 -21
18 0 44 -7 56 -16 19 -13 22 -24 20 -57 -3 -40 -4 -42 -40 -45 -31 -3 -40 2
-59 27 -23 31 -51 39 -78 22 -32 -21 52 -99 117 -108 72 -10 152 52 152 116 0
12 -16 39 -36 61 -34 37 -35 40 -20 62 37 52 7 106 -69 127 -51 14 -54 14 -93
-6z"/>
<path d="M1384 4857 c-11 -7 -42 -30 -68 -51 -40 -34 -46 -43 -41 -65 9 -36
11 -37 45 -7 17 14 35 26 39 26 8 0 31 -135 31 -177 0 -17 -6 -23 -22 -23 -50
0 -68 -11 -68 -41 0 -17 5 -29 13 -29 6 0 70 5 140 11 l128 12 -3 31 c-3 30
-4 31 -50 29 -27 -2 -48 0 -48 5 0 4 -9 68 -20 142 -11 74 -20 138 -20 143 0
11 -32 8 -56 -6z"/>
<path d="M11607 4481 c-48 -42 -63 -110 -43 -193 16 -69 37 -103 79 -128 118
-72 247 71 157 174 -38 43 -76 52 -125 32 -21 -9 -39 -16 -41 -16 -11 0 -2 69
12 88 20 29 36 28 73 -4 25 -21 34 -23 51 -14 45 24 -7 79 -82 87 -40 5 -49 2
-81 -26z m127 -183 c23 -32 21 -85 -3 -98 -28 -14 -38 -13 -61 10 -22 22 -27
79 -8 98 19 19 55 14 72 -10z"/>
<path d="M11314 4466 c-59 -27 -97 -105 -58 -120 31 -12 44 -6 58 28 16 38 45
52 75 37 48 -26 34 -77 -42 -159 -83 -88 -96 -112 -79 -140 7 -10 28 -11 103
-2 164 18 159 17 159 52 l0 31 -77 -7 -77 -7 52 55 c83 88 94 143 39 202 -26
29 -42 37 -77 40 -26 3 -58 -2 -76 -10z"/>
<path d="M10050 4338 c-52 -5 -101 -10 -107 -13 -14 -5 -17 -120 -4 -165 9
-33 51 -38 89 -10 23 17 33 19 54 11 49 -19 64 -85 28 -121 -26 -26 -42 -25
-79 6 -23 19 -38 24 -56 20 -33 -8 -31 -29 5 -60 87 -73 230 -18 230 88 0 100
-78 146 -187 111 -20 -7 -23 -4 -23 23 0 32 -1 32 95 48 22 4 46 11 53 17 13
10 16 44 5 49 -5 2 -51 0 -103 -4z"/>
<path d="M9672 4293 c-35 -17 -62 -58 -62 -93 0 -16 6 -20 30 -20 23 0 33 7
45 30 19 38 59 49 85 25 11 -10 20 -27 20 -37 0 -24 -47 -92 -95 -138 -44 -42
-68 -85 -60 -109 5 -16 13 -16 118 -5 61 7 120 13 130 13 12 1 17 9 17 32 l0
31 -75 -4 c-41 -2 -75 -2 -75 0 0 2 14 15 31 30 82 69 110 150 73 208 -35 53
-117 69 -182 37z"/>
<path d="M8432 4183 c-37 -5 -52 -28 -108 -175 -46 -118 -42 -130 39 -121 34
3 69 7 77 7 10 1 17 -11 20 -34 5 -33 7 -35 45 -35 l40 0 -2 38 c-2 32 1 39
22 47 14 5 25 14 25 19 0 24 -14 41 -35 41 -24 0 -25 4 -51 183 -4 27 -10 37
-22 35 -10 0 -32 -3 -50 -5z m3 -160 l7 -63 -42 0 c-47 0 -47 -5 -7 87 12 28
25 49 28 45 4 -4 10 -35 14 -69z"/>
<path d="M8083 4140 c-47 -11 -78 -34 -93 -69 -16 -39 -7 -61 24 -61 17 0 30
10 45 35 16 28 27 35 51 35 23 0 33 -6 42 -25 16 -36 -5 -77 -79 -156 -50 -52
-63 -73 -63 -98 0 -36 4 -37 160 -18 l95 12 3 32 3 33 -78 -6 -78 -6 42 39
c85 78 106 154 58 212 -34 40 -79 54 -132 41z"/>
<path d="M6725 3995 c-59 -30 -83 -78 -45 -90 15 -5 31 2 56 24 40 36 54 38
77 13 32 -35 18 -64 -36 -77 -20 -5 -27 -13 -27 -31 0 -21 5 -24 39 -24 49 0
71 -21 71 -66 0 -27 -5 -37 -25 -46 -32 -14 -71 2 -87 37 -12 28 -35 32 -63
11 -17 -12 -17 -15 -3 -35 62 -88 184 -96 247 -15 32 41 27 81 -14 120 l-35
33 16 34 c25 51 13 84 -39 107 -51 24 -92 25 -132 5z"/>
<path d="M6430 3969 c-79 -32 -108 -128 -38 -129 10 0 24 13 33 30 22 43 50
55 81 35 14 -9 24 -25 24 -39 0 -29 -47 -99 -104 -156 -36 -35 -46 -51 -46
-77 0 -18 3 -33 8 -33 12 0 185 20 218 25 20 4 34 13 37 24 9 37 -6 44 -84 37
l-74 -7 51 53 c63 64 74 85 74 136 0 81 -95 135 -180 101z"/>
<path d="M5074 3808 c-23 -22 -35 -43 -37 -63 -2 -27 1 -30 29 -33 27 -3 33 1
44 28 20 49 89 53 98 6 7 -35 -10 -66 -78 -141 -53 -58 -70 -84 -70 -106 0
-34 6 -35 159 -18 102 12 118 21 106 58 -4 14 -17 16 -77 13 l-73 -5 48 52
c85 91 94 155 30 211 -29 26 -42 30 -88 30 -48 0 -60 -4 -91 -32z"/>
<path d="M4795 3801 c-33 -15 -66 -56 -68 -87 -2 -26 2 -29 29 -32 26 -3 33 1
44 27 30 73 119 37 95 -39 -4 -12 -38 -56 -76 -98 -56 -62 -69 -83 -69 -110 0
-28 3 -32 23 -28 12 3 69 10 127 16 58 7 106 13 107 14 2 1 4 13 5 27 3 24 2
24 -74 24 l-77 0 49 50 c86 87 97 157 35 215 -27 25 -113 37 -150 21z"/>
<path d="M3473 3631 c-53 -44 -59 -53 -55 -80 l4 -30 43 29 43 29 12 -82 c19
-131 21 -121 -30 -127 -42 -5 -45 -7 -48 -37 -4 -39 -17 -37 153 -18 72 8 131
15 132 15 1 0 -2 12 -6 28 -7 24 -12 27 -52 28 l-44 0 -18 115 c-10 63 -20
129 -23 147 -7 47 -40 42 -111 -17z"/>
<path d="M3195 3640 c-49 -11 -71 -27 -89 -65 -22 -45 -15 -65 22 -65 22 0 31
7 43 33 24 56 99 47 99 -12 0 -33 -18 -59 -92 -138 -45 -47 -58 -68 -58 -92 0
-36 -8 -35 146 -20 98 10 113 14 118 31 10 41 -1 47 -82 41 l-76 -6 42 37 c57
52 85 100 85 147 0 74 -78 128 -158 109z"/>
<path d="M1851 3497 c-50 -25 -66 -62 -66 -150 0 -71 4 -88 27 -128 34 -57 66
-79 116 -79 104 0 156 141 98 265 -42 90 -110 126 -175 92z m78 -62 c39 -50
55 -200 25 -230 -42 -41 -81 20 -91 142 -5 66 -3 82 11 96 23 23 31 22 55 -8z"/>
<path d="M1533 3465 c-34 -15 -58 -45 -68 -87 -6 -23 -3 -28 19 -34 28 -7 56
9 56 32 0 21 46 47 69 39 24 -7 36 -44 27 -78 -3 -13 -37 -58 -76 -100 -55
-61 -70 -84 -70 -108 0 -31 0 -31 43 -25 23 3 77 9 120 12 81 7 111 22 105 53
-3 13 -16 16 -83 13 l-80 -3 57 56 c71 69 90 118 65 170 -31 66 -111 92 -184
60z"/>
<path d="M8571 2754 c-61 -46 -65 -52 -61 -89 3 -29 5 -29 43 -1 19 14 36 26
39 26 3 0 11 -37 17 -82 7 -46 14 -90 17 -100 4 -13 -5 -17 -46 -23 -48 -7
-50 -8 -50 -37 l0 -31 78 7 c214 18 202 16 202 47 0 30 -3 32 -61 29 l-36 -1
-12 75 c-6 42 -16 110 -22 151 -14 92 -22 94 -108 29z"/>
<path d="M8240 2742 c-19 -9 -41 -29 -50 -45 -13 -24 -13 -29 0 -37 22 -14 27
-13 62 20 36 34 58 38 81 12 32 -35 18 -63 -35 -76 -21 -5 -28 -12 -28 -31 0
-22 4 -25 38 -25 47 0 72 -24 72 -68 0 -21 -7 -35 -19 -42 -33 -17 -52 -11
-86 26 -27 29 -37 34 -59 28 -30 -7 -32 -16 -10 -49 42 -65 141 -85 205 -42
67 45 74 106 17 159 -31 29 -31 30 -15 58 23 38 21 62 -5 88 -48 44 -111 53
-168 24z"/>
<path d="M6927 2609 c-30 -18 -57 -84 -57 -142 0 -72 24 -137 65 -177 28 -27
42 -33 79 -34 84 -2 135 80 122 194 -7 61 -43 129 -80 154 -28 18 -101 21
-129 5z m102 -73 c7 -16 18 -62 24 -102 13 -93 1 -127 -41 -122 -22 2 -30 11
-41 43 -20 59 -27 181 -11 200 19 23 53 14 69 -19z"/>
<path d="M6603 2570 c-31 -18 -53 -48 -53 -69 0 -21 53 -11 76 14 27 29 56 32
79 9 24 -25 15 -57 -20 -69 -49 -16 -56 -24 -45 -46 8 -14 21 -19 48 -19 48 0
62 -14 62 -62 0 -32 -4 -40 -25 -48 -33 -13 -67 1 -84 34 -14 26 -34 32 -65
20 -24 -9 -19 -27 17 -61 57 -56 112 -66 177 -33 41 21 70 63 70 101 0 11 -16
37 -36 57 l-35 35 17 32 c11 21 15 41 10 59 -15 60 -127 87 -193 46z"/>
<path d="M5303 2445 c-36 -15 -73 -68 -73 -103 0 -54 60 -122 109 -122 14 0
39 7 55 15 15 8 30 15 32 15 12 0 2 -81 -12 -94 -17 -18 -50 -21 -59 -6 -8 13
-72 13 -80 1 -7 -13 34 -50 63 -58 40 -10 104 4 128 29 71 72 45 255 -45 315
-39 26 -72 28 -118 8z m88 -56 c15 -15 19 -30 17 -62 -3 -39 -5 -42 -34 -45
-35 -3 -51 11 -60 55 -5 24 -1 36 15 52 26 26 36 26 62 0z"/>
<path d="M4990 2408 c-34 -17 -48 -32 -59 -61 -12 -33 -12 -40 0 -48 24 -16
53 -5 67 23 7 16 22 33 33 39 30 16 69 -13 69 -50 0 -32 -19 -60 -97 -143 -41
-44 -53 -64 -53 -89 l0 -32 53 7 c28 3 85 9 125 13 76 6 99 22 86 58 -6 14
-17 15 -81 10 l-74 -7 55 56 c69 70 86 117 61 169 -33 70 -110 93 -185 55z"/>
<path d="M3653 2270 c-59 -35 -68 -85 -29 -143 l25 -36 -21 -38 c-25 -47 -14
-83 34 -114 61 -38 190 -11 216 46 21 45 14 75 -23 112 -32 32 -34 36 -20 56
17 25 19 60 5 88 -26 48 -129 65 -187 29z m115 -42 c7 -7 12 -27 12 -44 0 -40
-29 -53 -65 -30 -33 22 -42 56 -19 73 22 16 56 17 72 1z m21 -182 c31 -33 21
-63 -24 -72 -45 -8 -75 10 -75 44 0 16 5 33 12 40 20 20 63 14 87 -12z"/>
<path d="M3360 2242 c-22 -10 -42 -32 -54 -56 -19 -38 -19 -39 0 -53 26 -19
47 -13 62 20 29 60 102 58 102 -4 0 -35 -22 -69 -97 -151 -39 -42 -53 -66 -53
-87 0 -33 -14 -32 165 -10 88 10 108 20 102 49 -2 12 -19 15 -79 15 l-76 -1
58 62 c66 71 78 105 56 158 -28 68 -113 95 -186 58z"/>
<path d="M2028 2113 c-41 -4 -49 -8 -54 -28 -11 -45 1 -48 143 -30 l31 3 -25
-54 c-26 -58 -56 -204 -47 -229 4 -10 20 -15 50 -15 l44 0 0 88 c0 65 6 108
25 167 14 44 25 86 25 93 0 12 -75 14 -192 5z"/>
<path d="M1731 2077 c-31 -16 -60 -55 -63 -87 -3 -21 1 -25 27 -27 24 -2 34 3
50 30 33 53 95 46 95 -12 -1 -36 -15 -59 -88 -140 -44 -49 -62 -78 -62 -97 l0
-27 78 7 c189 17 201 21 187 65 -4 14 -17 16 -77 13 l-72 -5 56 62 c66 71 79
110 54 163 -9 19 -29 42 -45 51 -34 20 -106 22 -140 4z"/>
</g>
</svg>
